<mxfile host="app.diagrams.net" modified="2023-02-21T18:20:20.150Z" agent="5.0 (X11)" etag="rMsc85-srszreLRXHmaU" version="20.8.21" type="github">
  <diagram name="Página-1" id="bFc177rZqauS8_UFmHUF">
    <mxGraphModel dx="1732" dy="554" grid="1" gridSize="10" guides="1" tooltips="1" connect="1" arrows="1" fold="1" page="1" pageScale="1" pageWidth="850" pageHeight="1100" math="0" shadow="0">
      <root>
        <mxCell id="0" />
        <mxCell id="1" parent="0" />
        <mxCell id="UTWmwrCypKD9sA65iVK1-1" value="EQUIPO &lt;span style=&quot;font-size: 11pt; font-family: Arial; color: rgb(0, 0, 0); background-color: transparent; font-weight: 400; font-style: normal; font-variant: normal; text-decoration: underline; text-decoration-skip-ink: none; vertical-align: baseline;&quot;&gt;(Nombre oficial&lt;/span&gt;&lt;span style=&quot;font-size: 11pt; font-family: Arial; color: rgb(0, 0, 0); background-color: transparent; font-weight: 400; font-style: normal; font-variant: normal; text-decoration: none; vertical-align: baseline;&quot;&gt;, Nombre corto, Nombre histórico, Otros nombres, Ciudad, Fecha fundación)&lt;/span&gt;" style="text;html=1;strokeColor=none;fillColor=none;align=center;verticalAlign=middle;whiteSpace=wrap;rounded=0;" vertex="1" parent="1">
          <mxGeometry x="55" y="140" width="740" height="30" as="geometry" />
        </mxCell>
        <mxCell id="UTWmwrCypKD9sA65iVK1-3" value="&lt;p id=&quot;docs-internal-guid-ae7be185-7fff-9508-fb25-8bbcf56c84a8&quot; style=&quot;line-height:1.38;margin-top:0pt;margin-bottom:0pt;&quot; dir=&quot;ltr&quot;&gt;ESTADIOS(&lt;span style=&quot;font-size: 11pt; font-family: Arial; color: rgb(0, 0, 0); background-color: transparent; font-weight: 400; font-style: normal; font-variant: normal; text-decoration: underline; text-decoration-skip-ink: none; vertical-align: baseline;&quot;&gt;Nombre&lt;/span&gt;&lt;span style=&quot;font-size: 11pt; font-family: Arial; color: rgb(0, 0, 0); background-color: transparent; font-weight: 400; font-style: normal; font-variant: normal; text-decoration: none; vertical-align: baseline;&quot;&gt;, Capacidad, Fecha de inauguración)&lt;/span&gt;&lt;/p&gt;" style="text;html=1;strokeColor=none;fillColor=none;align=center;verticalAlign=middle;whiteSpace=wrap;rounded=0;" vertex="1" parent="1">
          <mxGeometry x="55" y="230" width="740" height="30" as="geometry" />
        </mxCell>
        <mxCell id="UTWmwrCypKD9sA65iVK1-4" value="&lt;p id=&quot;docs-internal-guid-b29137fc-7fff-e210-7a7c-c94be5e26367&quot; style=&quot;line-height: 1.38; margin-top: 0pt; margin-bottom: 0pt; font-size: 13px;&quot; dir=&quot;ltr&quot;&gt;&lt;font style=&quot;font-size: 13px;&quot;&gt;PARTIDO(Goles local, Goles Visitante, &lt;u&gt;código&lt;/u&gt;)&lt;/font&gt;&lt;/p&gt;&lt;p id=&quot;docs-internal-guid-ae7be185-7fff-9508-fb25-8bbcf56c84a8&quot; style=&quot;line-height: 1.38; margin-top: 0pt; margin-bottom: 0pt; font-size: 13px;&quot; dir=&quot;ltr&quot;&gt;&lt;/p&gt;" style="text;html=1;strokeColor=none;fillColor=none;align=center;verticalAlign=middle;whiteSpace=wrap;rounded=0;" vertex="1" parent="1">
          <mxGeometry x="55" y="320" width="740" height="30" as="geometry" />
        </mxCell>
        <mxCell id="UTWmwrCypKD9sA65iVK1-5" value="&lt;p id=&quot;docs-internal-guid-d062ec6a-7fff-5ad4-b682-37d9f37c2bd6&quot; style=&quot;line-height: 1.38; margin-top: 0pt; margin-bottom: 0pt; font-size: 13px;&quot; dir=&quot;ltr&quot;&gt;JORNADA(Número, &lt;u&gt;IdJor&lt;/u&gt;)&lt;/p&gt;&lt;p id=&quot;docs-internal-guid-b29137fc-7fff-e210-7a7c-c94be5e26367&quot; style=&quot;line-height:1.38;margin-top:0pt;margin-bottom:0pt;&quot; dir=&quot;ltr&quot;&gt;&lt;/p&gt;&lt;p id=&quot;docs-internal-guid-ae7be185-7fff-9508-fb25-8bbcf56c84a8&quot; style=&quot;line-height:1.38;margin-top:0pt;margin-bottom:0pt;&quot; dir=&quot;ltr&quot;&gt;&lt;/p&gt;" style="text;html=1;strokeColor=none;fillColor=none;align=center;verticalAlign=middle;whiteSpace=wrap;rounded=0;" vertex="1" parent="1">
          <mxGeometry x="50" y="380" width="740" height="30" as="geometry" />
        </mxCell>
        <mxCell id="UTWmwrCypKD9sA65iVK1-6" value="&lt;p id=&quot;docs-internal-guid-06d0baa3-7fff-bc2a-16c3-9cde62015013&quot; style=&quot;line-height: 1.38; margin-top: 0pt; margin-bottom: 0pt; font-size: 13px;&quot; dir=&quot;ltr&quot;&gt;TEMPORADA(&lt;span style=&quot;font-family: Arial; color: rgb(0, 0, 0); background-color: transparent; font-style: normal; font-variant: normal; text-decoration-skip-ink: none; vertical-align: baseline;&quot;&gt;Inicio&lt;/span&gt;&lt;span style=&quot;font-family: Arial; color: rgb(0, 0, 0); background-color: transparent; font-style: normal; font-variant: normal; text-decoration: none; vertical-align: baseline;&quot;&gt;, Fin,&lt;u&gt;IdTemp&lt;/u&gt;)&lt;/span&gt;&lt;/p&gt;&lt;p id=&quot;docs-internal-guid-d062ec6a-7fff-5ad4-b682-37d9f37c2bd6&quot; style=&quot;line-height:1.38;margin-top:0pt;margin-bottom:0pt;&quot; dir=&quot;ltr&quot;&gt;&lt;/p&gt;&lt;p id=&quot;docs-internal-guid-b29137fc-7fff-e210-7a7c-c94be5e26367&quot; style=&quot;line-height:1.38;margin-top:0pt;margin-bottom:0pt;&quot; dir=&quot;ltr&quot;&gt;&lt;/p&gt;&lt;p id=&quot;docs-internal-guid-ae7be185-7fff-9508-fb25-8bbcf56c84a8&quot; style=&quot;line-height:1.38;margin-top:0pt;margin-bottom:0pt;&quot; dir=&quot;ltr&quot;&gt;&lt;/p&gt;" style="text;html=1;strokeColor=none;fillColor=none;align=center;verticalAlign=middle;whiteSpace=wrap;rounded=0;" vertex="1" parent="1">
          <mxGeometry x="55" y="440" width="740" height="30" as="geometry" />
        </mxCell>
        <mxCell id="UTWmwrCypKD9sA65iVK1-7" value="&lt;p id=&quot;docs-internal-guid-3562eadd-7fff-00f9-283a-577bf8721a5b&quot; style=&quot;line-height: 1.38; margin-top: 0pt; margin-bottom: 0pt; font-size: 13px;&quot; dir=&quot;ltr&quot;&gt;&lt;font style=&quot;font-size: 13px;&quot;&gt;DIVISIÓN(&lt;u&gt;Denominación oficial&lt;/u&gt;)&lt;/font&gt;&lt;/p&gt;" style="text;html=1;strokeColor=none;fillColor=none;align=center;verticalAlign=middle;whiteSpace=wrap;rounded=0;" vertex="1" parent="1">
          <mxGeometry x="55" y="500" width="740" height="30" as="geometry" />
        </mxCell>
        <mxCell id="UTWmwrCypKD9sA65iVK1-8" value="&lt;p id=&quot;docs-internal-guid-3562eadd-7fff-00f9-283a-577bf8721a5b&quot; style=&quot;line-height: 100%; margin-top: 0pt; margin-bottom: 0pt; font-size: 13px;&quot; dir=&quot;ltr&quot;&gt;&lt;font style=&quot;font-size: 13px;&quot;&gt;SEDE(&lt;u&gt;&lt;font color=&quot;#FF3333&quot;&gt;Equipo&lt;/font&gt;, &lt;font color=&quot;#FF3333&quot;&gt;Estadio&lt;/font&gt;&lt;/u&gt;)&lt;/font&gt;&lt;/p&gt;" style="text;html=1;strokeColor=none;fillColor=none;align=center;verticalAlign=middle;whiteSpace=wrap;rounded=0;" vertex="1" parent="1">
          <mxGeometry x="20" y="180" width="740" height="30" as="geometry" />
        </mxCell>
        <mxCell id="UTWmwrCypKD9sA65iVK1-11" value="" style="endArrow=none;html=1;rounded=0;fontSize=13;fontColor=#FF3333;exitX=0.466;exitY=0.05;exitDx=0;exitDy=0;exitPerimeter=0;" edge="1" parent="1" source="UTWmwrCypKD9sA65iVK1-8">
          <mxGeometry width="50" height="50" relative="1" as="geometry">
            <mxPoint x="170" y="220" as="sourcePoint" />
            <mxPoint x="220" y="170" as="targetPoint" />
          </mxGeometry>
        </mxCell>
        <mxCell id="UTWmwrCypKD9sA65iVK1-12" value="" style="endArrow=none;html=1;rounded=0;fontSize=13;fontColor=#FF3333;exitX=0.394;exitY=-0.05;exitDx=0;exitDy=0;exitPerimeter=0;entryX=0.555;entryY=1;entryDx=0;entryDy=0;entryPerimeter=0;" edge="1" parent="1" source="UTWmwrCypKD9sA65iVK1-3" target="UTWmwrCypKD9sA65iVK1-8">
          <mxGeometry width="50" height="50" relative="1" as="geometry">
            <mxPoint x="330" y="250" as="sourcePoint" />
            <mxPoint x="380" y="200" as="targetPoint" />
          </mxGeometry>
        </mxCell>
        <mxCell id="UTWmwrCypKD9sA65iVK1-13" value="TIENE(&lt;u&gt;&lt;font color=&quot;#FF3333&quot;&gt;Temporada&lt;/font&gt;, &lt;font color=&quot;#FF3333&quot;&gt;Division&lt;/font&gt;&lt;/u&gt;)" style="text;html=1;strokeColor=none;fillColor=none;align=center;verticalAlign=middle;whiteSpace=wrap;rounded=0;" vertex="1" parent="1">
          <mxGeometry x="55" y="470" width="740" height="30" as="geometry" />
        </mxCell>
        <mxCell id="UTWmwrCypKD9sA65iVK1-14" value="PERTENECE(&lt;u&gt;&lt;font color=&quot;#FF3333&quot;&gt;Temporada&lt;/font&gt;, &lt;font color=&quot;#FF3333&quot;&gt;Jornada&lt;/font&gt;&lt;/u&gt;)" style="text;html=1;strokeColor=none;fillColor=none;align=center;verticalAlign=middle;whiteSpace=wrap;rounded=0;" vertex="1" parent="1">
          <mxGeometry x="55" y="410" width="740" height="30" as="geometry" />
        </mxCell>
        <mxCell id="UTWmwrCypKD9sA65iVK1-15" value="HAY(&lt;u&gt;&lt;font color=&quot;#e01b24&quot;&gt;Partido&lt;/font&gt;, &lt;font color=&quot;#e01b24&quot;&gt;Jornada&lt;/font&gt;&lt;/u&gt;)" style="text;html=1;strokeColor=none;fillColor=none;align=center;verticalAlign=middle;whiteSpace=wrap;rounded=0;" vertex="1" parent="1">
          <mxGeometry x="50" y="350" width="740" height="30" as="geometry" />
        </mxCell>
        <mxCell id="UTWmwrCypKD9sA65iVK1-16" value="SE JUGO EN(&lt;u&gt;&lt;font color=&quot;#FF3333&quot;&gt;Partido&lt;/font&gt;, &lt;font color=&quot;#FF3333&quot;&gt;Estadio&lt;/font&gt;&lt;/u&gt;)" style="text;html=1;strokeColor=none;fillColor=none;align=center;verticalAlign=middle;whiteSpace=wrap;rounded=0;" vertex="1" parent="1">
          <mxGeometry x="65" y="290" width="740" height="30" as="geometry" />
        </mxCell>
        <mxCell id="UTWmwrCypKD9sA65iVK1-17" value="LOCAL(&lt;u&gt;&lt;font color=&quot;#FF0000&quot;&gt;Equipo&lt;/font&gt;, &lt;font color=&quot;#FF0000&quot;&gt;Partido&lt;/font&gt;&lt;/u&gt;)" style="text;html=1;strokeColor=none;fillColor=none;align=center;verticalAlign=middle;whiteSpace=wrap;rounded=0;" vertex="1" parent="1">
          <mxGeometry x="-380" y="260" width="740" height="30" as="geometry" />
        </mxCell>
        <mxCell id="UTWmwrCypKD9sA65iVK1-18" value="VISITANTE(&lt;u&gt;&lt;font color=&quot;#FF0000&quot;&gt;Equipo&lt;/font&gt;, &lt;font color=&quot;#FF0000&quot;&gt;Partido&lt;/font&gt;&lt;/u&gt;)" style="text;html=1;strokeColor=none;fillColor=none;align=center;verticalAlign=middle;whiteSpace=wrap;rounded=0;" vertex="1" parent="1">
          <mxGeometry x="-380" y="290" width="740" height="30" as="geometry" />
        </mxCell>
      </root>
    </mxGraphModel>
  </diagram>
</mxfile>
